PathFileType	4	(X/Y/Z)	C:\Users\Basilio\Documents\Thesis Gigler\squatting_fais\c3dfiles\058\SJ_pre5\markers_experimental.trc
DataRate	CameraRate	NumFrames	NumMarkers	Units	OrigDataRate	OrigDataStartFrame	OrigNumFrames
200.000000	200.000000	4	61	mm	200.000000	154	1235
Frame#	Time	FHD			LBHD			RBHD			C7			T10			CLAV			LSHO			LUUPA			LMUPA			LDUPA			LLEP			LMEP			LRAD			LUL			LRFIN			RSHO			RUPA1			RMUPA			RDUPA			RLEP			RMEP			RRAD			RUL			RUFIN			LASI			RASI			USACR			LSACR			RSACR			LTHI1			LTHI2			LTHI3			LTHI4			LLFC			LMFC			LTIB1			LTIB2			LTIB3			LTIB4			LLMAL			LMMAL			LHEE			LMT1			LMT2			LMT5			RTHI			RTHI2			RTHI3			RTHI4			RLFC			RMFC			RTIB1			RTIB2			RTIB3			RTIB4			RLMAL			RMMAL			RHEE			RMT1			RMT2			RMT5			
		X1	Y1	Z1	X2	Y2	Z2	X3	Y3	Z3	X4	Y4	Z4	X5	Y5	Z5	X6	Y6	Z6	X7	Y7	Z7	X8	Y8	Z8	X9	Y9	Z9	X10	Y10	Z10	X11	Y11	Z11	X12	Y12	Z12	X13	Y13	Z13	X14	Y14	Z14	X15	Y15	Z15	X16	Y16	Z16	X17	Y17	Z17	X18	Y18	Z18	X19	Y19	Z19	X20	Y20	Z20	X21	Y21	Z21	X22	Y22	Z22	X23	Y23	Z23	X24	Y24	Z24	X25	Y25	Z25	X26	Y26	Z26	X27	Y27	Z27	X28	Y28	Z28	X29	Y29	Z29	X30	Y30	Z30	X31	Y31	Z31	X32	Y32	Z32	X33	Y33	Z33	X34	Y34	Z34	X35	Y35	Z35	X36	Y36	Z36	X37	Y37	Z37	X38	Y38	Z38	X39	Y39	Z39	X40	Y40	Z40	X41	Y41	Z41	X42	Y42	Z42	X43	Y43	Z43	X44	Y44	Z44	X45	Y45	Z45	X46	Y46	Z46	X47	Y47	Z47	X48	Y48	Z48	X49	Y49	Z49	X50	Y50	Z50	X51	Y51	Z51	X52	Y52	Z52	X53	Y53	Z53	X54	Y54	Z54	X55	Y55	Z55	X56	Y56	Z56	X57	Y57	Z57	X58	Y58	Z58	X59	Y59	Z59	X60	Y60	Z60	X61	Y61	Z61	

155	0.77	45.96871185302735	1168.136596679688	-826.8306884765627	-115.9715576171875	1140.21484375	-901.968200683594	58.90696334838869	1179.652465820313	-968.1600341796877	-159.1790008544922	1074.628662109375	-917.9445800781252	-409.9668579101564	901.279724121094	-897.7854614257815	-76.34741973876955	929.7715454101565	-900.7529296875002	-35.32492065429688	962.5571899414065	-1062.174072265625	-199.7906036376954	971.8035888671877	-1231.966552734375	-215.5240020751954	923.6555175781252	-1233.328979492188	-258.8638916015626	950.7376098632815	-1265.281616210938	-339.2446289062501	929.3966064453127	-1294.771362304688	-378.5148620605469	978.3579101562502	-1247.589111328125	-482.1846008300782	797.1926269531252	-1097.193603515625	-422.454315185547	762.2500610351564	-1074.82080078125	-486.1165161132814	734.6484375000001	-1149.65966796875	-39.1494369506836	984.0510253906252	-742.3740234375001	-200.2821960449219	1008.899353027344	-579.8984985351564	-216.3711547851563	960.800964355469	-577.2891845703126	-256.4626770019532	986.8731079101565	-542.0288085937501	-322.9875183105469	980.9775390625002	-507.675262451172	-379.4292297363282	1014.987243652344	-570.1063842773439	-432.4182739257814	798.7354736328127	-677.7899780273439	-427.3442687988282	746.0096435546876	-616.6055908203126	-381.6025695800782	748.3553466796876	-710.8952026367189	nan	nan	nan	nan	nan	nan	-524.3544311523439	817.3210449218752	-881.5627441406252	-551.7841186523439	797.8863525390627	-907.4322509765627	-547.7159423828126	798.600524902344	-850.5339355468752	-372.6098937988282	587.5661621093751	-1135.641723632813	-289.7259521484376	577.2276611328126	-1157.624633789063	-260.4725646972657	609.3378295898439	-1134.685546875	-260.5726928710938	523.6653442382814	-1169.68359375	-187.9544677734375	475.997528076172	-1177.40625	-148.1081695556641	462.585418701172	-1061.922485351563	-153.544921875	339.9764099121094	-1154.457153320313	-227.6493072509766	333.6082153320313	-1200.017456054688	-193.247299194336	309.8043212890626	-1182.72900390625	-230.2175445556641	239.1836547851563	-1154.381591796875	-365.7221374511719	89.4140090942383	-1156.267578125	-329.0882263183594	95.43247985839845	-1072.431884765625	-428.3462219238282	50.27756500244142	-1101.459106445313	-203.4041137695313	63.3768997192383	-1119.97607421875	-207.3179016113282	60.81877899169923	-1166.640991210938	-260.6142272949219	35.22753906250001	-1214.493286132813	-436.5310363769532	584.1387939453126	-649.2438964843751	-371.1190795898438	591.6707763671876	-638.3338012695314	-353.8969421386719	619.1734008789064	-644.1112670898439	-316.1433715820313	529.7285766601564	-628.3899536132814	-183.1394500732422	455.4493713378907	-611.7000122070314	-135.3533172607422	450.0643005371095	-736.3455200195314	-185.1936492919922	277.0019531250001	-695.6089477539064	-258.4993286132813	223.2247924804688	-630.9671630859376	-227.6814727783204	205.7550048828126	-661.2299804687501	-253.1438903808594	169.1287384033203	-698.2623901367189	-353.1681213378907	93.71592712402345	-658.0725708007814	-312.8797912597657	98.96977996826175	-743.0688476562501	-419.9841308593751	53.31461715698244	-720.8172607421876	-204.6340637207032	54.5870704650879	-683.5371093750001	-213.6881713867188	61.29566574096681	-631.9785156250001	-264.6411132812501	26.17905426025391	-587.5925903320314	
156	0.775	46.61641693115235	1164.447143554688	-826.8787841796877	-115.348129272461	1136.604248046875	-902.0725097656252	59.51945877075197	1175.690307617188	-968.0706176757815	-158.9124450683594	1071.167114257813	-918.0432739257815	-410.0552673339845	898.1489868164065	-898.0465087890627	-76.2248992919922	926.2166137695315	-900.7489013671877	-35.0653305053711	958.9841918945315	-1062.133422851563	-199.4213409423829	968.668395996094	-1232.057739257813	-215.3413696289063	920.5422363281252	-1233.408203125	-258.5281677246094	947.608825683594	-1265.329833984375	-338.6670227050782	926.1987915039065	-1294.870849609375	-378.1382141113282	975.6235351562502	-1247.6376953125	-482.097137451172	794.5772705078127	-1097.425537109375	-422.5252990722657	759.4937133789064	-1075.102783203125	-486.0842285156251	731.8595581054689	-1150.076904296875	-38.74642944335938	980.0797119140627	-742.3857421875001	-199.9782104492188	1005.810852050781	-580.0709228515626	-216.1528320312501	957.671569824219	-577.5228271484376	-256.2330627441407	983.9077758789065	-542.2232666015626	-322.6439514160157	978.1275024414065	-507.9098205566407	-379.2056579589844	1012.243530273438	-570.4368286132814	-432.903778076172	795.8753051757815	-677.8231201171876	-427.7439270019532	743.1753540039064	-616.8524780273439	-382.0323791503907	745.7581787109376	-710.9655151367189	nan	nan	nan	nan	nan	nan	-524.7966918945314	814.5073852539065	-881.8238525390627	-552.2551269531251	794.7636718750002	-907.6824951171877	-547.4588623046876	795.8582763671877	-850.9520263671877	-372.3790588378907	585.9860839843751	-1135.799560546875	-289.7498474121094	576.3298950195314	-1157.481689453125	-260.5201110839844	608.2106933593751	-1134.7578125	-260.1730041503907	522.9379272460939	-1169.835571289063	-187.4629821777344	475.969696044922	-1177.647338867188	-147.5386047363282	461.9059448242189	-1062.210571289063	-152.9908752441407	339.6580810546876	-1154.616943359375	-227.3177947998047	333.2980651855469	-1200.089111328125	-192.7771301269532	309.4233398437501	-1182.872924804688	-229.8695831298829	238.9943084716797	-1154.434692382813	-365.6829528808594	89.40240478515626	-1156.210693359375	-328.9826965332032	95.40649414062501	-1072.421508789063	-428.2947692871095	50.25942993164064	-1101.408081054688	-203.835678100586	63.3842124938965	-1119.94287109375	-207.2803192138672	60.93521118164064	-1166.64990234375	-260.6117858886719	35.2368278503418	-1214.509765625	-436.3069152832032	582.1290893554689	-649.6715698242189	-370.8947448730469	590.2515869140626	-638.7313842773439	-353.9661254882813	617.3869018554689	-644.5487670898439	-316.0589599609376	528.4930419921876	-628.6114501953126	-182.3408966064453	454.7478027343751	-612.1421508789064	-134.7777709960938	449.5880432128907	-736.5740966796876	-184.8378143310547	276.7114562988282	-695.8580932617189	-258.3598632812501	223.1210937500001	-631.1789550781251	-227.580551147461	205.5672760009766	-661.2869262695314	-252.8558807373047	169.0167236328125	-698.3684082031251	-352.9906005859376	93.74758148193361	-658.2485961914064	-312.7126770019532	98.89597320556643	-743.1989135742189	-419.9886169433595	53.3097610473633	-720.8347778320314	-204.5516357421876	54.60430908203126	-683.6183471679689	-213.5207672119141	61.37689208984376	-632.0844726562501	-264.6837158203126	26.23227691650391	-587.6293334960939	
157	0.78	46.99705505371094	1160.634399414063	-826.8037109375002	-114.9997863769532	1133.14697265625	-901.9052734375002	59.86948776245119	1171.878662109375	-968.1353759765627	-158.9067535400391	1067.616088867188	-917.9290771484377	-410.1206054687501	895.1692504882815	-898.2738037109377	-75.91849517822267	922.444763183594	-900.7307128906252	-34.8518409729004	955.3563232421877	-1062.222534179688	-198.9901123046876	965.4934082031252	-1232.083129882813	-215.2468261718751	917.3873291015627	-1233.468994140625	-258.0248718261719	944.6604003906252	-1265.49755859375	-338.7204589843751	923.6724853515627	-1294.919189453125	-378.2448425292969	972.4489746093752	-1247.604248046875	-482.1877746582032	791.7357177734377	-1097.759521484375	-422.6305541992189	756.8451538085939	-1075.389038085938	-486.2173461914064	729.2918090820314	-1150.463989257813	-38.72122955322266	976.5725097656252	-742.4915161132814	-199.6377868652344	1002.431274414063	-580.2454223632814	-216.0857391357422	954.588317871094	-577.5401000976564	-256.0162353515626	980.9132080078127	-542.2697753906251	-322.4887084960938	975.0932617187502	-508.1719970703126	-378.8793029785157	1009.419311523438	-570.5937500000001	-433.2173461914064	793.239196777344	-677.8890991210939	-428.0775451660157	740.5349121093751	-616.7891845703126	-382.5378112792969	743.1006469726564	-711.1177368164064	nan	nan	nan	nan	nan	nan	-525.1676025390626	811.7209472656252	-882.0623168945315	-552.3440551757814	791.9500122070315	-907.8499755859377	-547.5088500976564	792.7671508789065	-851.4378662109377	-372.8085021972657	584.3658447265626	-1135.932861328125	-289.6317749023438	575.0193481445314	-1157.653198242188	-260.7220764160157	607.1685180664064	-1134.824462890625	-259.9018249511719	521.8178710937501	-1170.14453125	-186.8721008300782	475.477996826172	-1177.917358398438	-146.9957427978516	461.4522399902345	-1062.62158203125	-152.5350799560547	339.3916625976563	-1154.946411132813	-226.8789978027344	332.9828186035157	-1200.249633789063	-192.413558959961	309.1905517578126	-1182.983764648438	-229.5348815917969	238.7906799316407	-1154.600463867188	-365.6805114746094	89.40317535400392	-1156.146728515625	-329.0260009765626	95.33477783203126	-1072.330932617188	-428.3612060546876	50.24977111816408	-1101.4130859375	-203.877914428711	63.36721420288087	-1119.948364257813	-207.3000030517579	60.81346893310548	-1166.715576171875	-260.5955505371094	35.19574356079102	-1214.558837890625	-436.7571716308595	580.0335693359376	-650.2880249023439	-371.2563171386719	588.5795288085939	-639.0123291015626	-354.1490173339844	616.1242065429689	-644.9539794921876	-315.8220520019532	527.4284057617189	-628.8060913085939	-181.8197021484375	454.352508544922	-612.3147583007814	-134.1711883544922	449.1136474609376	-736.7505493164064	-184.4370880126953	276.5157775878907	-696.0487060546876	-257.8911132812501	223.0812988281251	-631.4315795898439	-227.3867340087891	205.4367370605469	-661.3950805664064	-252.522445678711	168.7041778564453	-698.5419311523439	-352.9123229980469	93.77284240722658	-658.3981933593751	-312.6284484863282	98.77500152587893	-743.2911987304689	-419.8310852050782	53.19340896606447	-720.9966430664064	-204.3656311035157	54.52389144897462	-683.6024169921876	-213.5349426269532	61.31653594970705	-632.0711059570314	-264.6959838867188	26.25996398925782	-587.6986694335939	
158	0.785	47.47104644775391	1157.006591796875	-826.8442382812502	-114.6195526123047	1129.455810546875	-901.7856445312502	60.38267898559572	1168.129638671875	-968.1760253906252	-158.5219116210938	1064.051513671875	-917.9875488281252	-410.2667236328126	892.566345214844	-898.4492797851565	-75.73189544677736	918.9939575195315	-900.7498779296877	-34.56795501708985	951.915466308594	-1062.166015625	-198.6163482666016	962.3358154296877	-1232.056396484375	-214.9116363525391	914.2369384765627	-1233.608764648438	-257.7633056640626	941.8223266601565	-1265.567260742188	-338.3351745605469	920.9038696289065	-1295.055297851563	-377.7525634765626	969.8063964843752	-1247.7666015625	-481.944061279297	789.2520751953127	-1098.031982421875	-422.3541870117189	754.3783569335939	-1075.918701171875	-486.2226562500001	726.6799926757814	-1150.63037109375	-38.45211410522462	973.170837402344	-742.5491943359376	-199.3445281982422	999.3292236328127	-580.3998413085939	-216.0885772705079	951.3363037109377	-577.5778808593751	-255.4729614257813	977.8777465820315	-542.5503540039064	-322.1400146484376	972.2456054687502	-508.3410644531251	-378.6124267578126	1006.745178222656	-570.7155761718751	-433.3483886718751	790.7604980468752	-677.9790649414064	-428.328338623047	737.7938842773439	-616.9041137695314	-382.8861999511719	740.4213867187501	-711.2175903320314	nan	nan	nan	nan	nan	nan	-525.1928710937501	808.7410278320315	-882.2837524414065	-552.2400512695314	789.1575317382815	-908.095397949219	-547.6767578125001	789.9578857421877	-851.6361083984377	-372.7479858398438	582.9185791015626	-1136.1943359375	-289.7060241699219	573.8319702148439	-1157.863525390625	-260.7902221679688	606.3159179687501	-1134.9697265625	-259.6080017089844	520.8081054687501	-1170.10986328125	-186.4836578369141	475.0195617675782	-1178.071166992188	-146.0625762939453	461.2359313964845	-1062.657836914063	-151.7827606201172	339.0751342773438	-1155.273559570313	-226.5359191894532	332.6593017578126	-1200.368896484375	-191.9153442382813	309.0476074218751	-1183.191772460938	-229.2535095214844	238.6089782714844	-1154.670532226563	-365.6509399414063	89.42001342773439	-1156.163452148438	-328.8737487792969	95.30066680908205	-1072.345947265625	-428.2197265625001	50.21091842651369	-1101.377197265625	-203.3687591552735	63.32271575927736	-1120.093383789063	-207.257553100586	60.85803222656251	-1166.803833007813	-260.6486816406251	35.19161224365235	-1214.549438476563	-436.6948242187501	578.0692138671876	-650.7474975585939	-371.3432617187501	586.9336547851564	-639.4075317382814	-354.1818542480469	614.4449462890626	-645.2006225585939	-315.4448547363282	526.1571044921876	-628.9893798828126	-181.5153961181641	453.8304443359376	-612.4615478515626	-133.5743713378907	448.5854492187501	-736.9939575195314	-183.8755950927735	276.3584289550782	-696.3927612304689	-257.7379455566407	223.0744323730469	-631.5916137695314	-227.0778045654297	205.157943725586	-661.4525756835939	-252.3488311767579	168.5458374023438	-698.6855468750001	-352.7508544921876	93.86202239990236	-658.6101074218751	-312.4882812500001	98.71463012695315	-743.4350585937501	-419.8181152343751	53.20837402343751	-721.0838623046876	-204.2844696044922	54.47029113769533	-683.6724243164064	-213.5322418212891	61.29918289184572	-632.1220092773439	-264.7238159179688	26.31172180175782	-587.7681274414064	
